<svg xmlns="http://www.w3.org/2000/svg" width="31.318" height="62.635" viewBox="0 0 31.318 62.635"><path d="M34.833,4H11.685A4.012,4.012,0,0,0,7.6,8.085V62.55a4.012,4.012,0,0,0,4.085,4.085H34.833a4.012,4.012,0,0,0,4.085-4.085V8.085A4.1,4.1,0,0,0,34.833,4ZM20.127,7.132h6.127a.435.435,0,0,1,.408.408.361.361,0,0,1-.408.408H20.127a.408.408,0,0,1,0-.817Zm-2.315-.272a.586.586,0,0,1,.545.545.545.545,0,1,1-1.089,0h0A.586.586,0,0,1,17.812,6.859Zm5.447,58.823a2.451,2.451,0,1,1,2.451-2.451,2.633,2.633,0,0,1-2.451,2.451Zm14.3-5.855H8.962V10.808H37.556Zm-12.8,3.4a1.5,1.5,0,1,1-1.5-1.5h0A1.511,1.511,0,0,1,24.757,63.231Z" transform="translate(-7.6 -4)" fill="#717172"/></svg>
