<?xml version="1.0" encoding="UTF-8" standalone="no"?>
<svg
   xmlns:dc="http://purl.org/dc/elements/1.1/"
   xmlns:cc="http://creativecommons.org/ns#"
   xmlns:rdf="http://www.w3.org/1999/02/22-rdf-syntax-ns#"
   xmlns:svg="http://www.w3.org/2000/svg"
   xmlns="http://www.w3.org/2000/svg"
   xmlns:sodipodi="http://sodipodi.sourceforge.net/DTD/sodipodi-0.dtd"
   xmlns:inkscape="http://www.inkscape.org/namespaces/inkscape"
   inkscape:version="1.0 (6e3e5246a0, 2020-05-07)"
   sodipodi:docname="lumapple.svg"
   version="1.1"
   viewBox="0 0 207.79 46"
   height="46"
   width="207.79"
   data-name="Logo Mobile"
   id="Logo_Mobile">
  <metadata
     id="metadata24">
    <rdf:RDF>
      <cc:Work
         rdf:about="">
        <dc:format>image/svg+xml</dc:format>
        <dc:type
           rdf:resource="http://purl.org/dc/dcmitype/StillImage" />
        <dc:title></dc:title>
      </cc:Work>
    </rdf:RDF>
  </metadata>
  <defs
     id="defs22" />
  <sodipodi:namedview
     inkscape:current-layer="Logo_Mobile"
     inkscape:window-maximized="1"
     inkscape:window-y="739"
     inkscape:window-x="1080"
     inkscape:cy="23"
     inkscape:cx="103.895"
     inkscape:zoom="7.0696378"
     inkscape:pagecheckerboard="true"
     showgrid="false"
     id="namedview20"
     inkscape:window-height="978"
     inkscape:window-width="1920"
     inkscape:pageshadow="2"
     inkscape:pageopacity="0"
     guidetolerance="10"
     gridtolerance="10"
     objecttolerance="10"
     borderopacity="1"
     bordercolor="#666666"
     pagecolor="#ffffff" />
  <g
     transform="translate(0 1)"
     data-name="Groupe 14"
     id="Groupe_14">
    <path
       fill="#fff"
       transform="translate(1307.878 -2826.84)"
       d="M-1258.767,2853.878a15.139,15.139,0,0,1-19.574,8.671,15.139,15.139,0,0,1-8.672-19.574,15.046,15.046,0,0,1,5.705-7.13v0c.17-.116.344-.226.518-.332.321-.2.647-.382.981-.551a5.721,5.721,0,0,1,4.37-.1,5.724,5.724,0,0,1,2.3,1.628c.032.036.061.074.091.109a9.258,9.258,0,0,0,3.71,2.619,9.247,9.247,0,0,0,4.3.576h.012c.163-.03.326-.051.494-.066l-.133.02c.068-.01.134-.017.2-.023a5.7,5.7,0,0,1,2.576.363,5.719,5.719,0,0,1,3.143,2.947c.15.39.284.787.4,1.187A15.06,15.06,0,0,1-1258.767,2853.878Z"
       data-name="Tracé 16"
       id="Tracé_16" />
    <path
       fill="#fff"
       transform="translate(1052.844 -2787.443)"
       d="M-1005.507,2792.54a5.737,5.737,0,0,1-4.409,5.781,5.736,5.736,0,0,1-3.6-.311,5.738,5.738,0,0,1,4.409-5.781A5.738,5.738,0,0,1-1005.507,2792.54Z"
       data-name="Tracé 17"
       id="Tracé_17" />
    <path
       fill="#fff"
       transform="translate(1567.742 -2834.62)"
       d="M-1524.165,2871.286a30.141,30.141,0,0,1-34.611,2.47l-.033-.02a18.578,18.578,0,0,1-6.256-25.481c3.3-5.465,10.143-6.793,15.85-3.945l.037.019a3.022,3.022,0,0,1,1.2,4.274,16.507,16.507,0,0,0-2.433,8.476,16.631,16.631,0,0,0,17,16.759,16.5,16.5,0,0,0,9.217-3.081.275.275,0,0,1,.061-.033C-1523.673,2870.553-1523.623,2870.873-1524.165,2871.286Z"
       data-name="Tracé 18"
       id="Tracé_18" />
    <path
       fill="#fff"
       transform="translate(1458.177 -2726.835)"
       d="M-1445.425,2729.027a2.192,2.192,0,0,1-1.772,2.152,2.219,2.219,0,0,1-.422.041,2.192,2.192,0,0,1-2.192-2.192,2.193,2.193,0,0,1,2.192-2.192,2.215,2.215,0,0,1,.525.063A2.194,2.194,0,0,1-1445.425,2729.027Z"
       data-name="Tracé 19"
       id="Tracé_19" />
    <path
       fill="#fff"
       transform="translate(1336.59 -2749.936)"
       d="M-1314.552,2753.893a2.193,2.193,0,0,1-1.772,2.152,2.217,2.217,0,0,1-.421.041,2.193,2.193,0,0,1-2.192-2.193,2.193,2.193,0,0,1,2.192-2.192,2.2,2.2,0,0,1,.525.063A2.194,2.194,0,0,1-1314.552,2753.893Z"
       data-name="Tracé 20"
       id="Tracé_20" />
    <g
       transform="translate(15.694 3.584)"
       data-name="Groupe 11"
       id="Groupe_11">
      <g
         transform="translate(0 0)"
         data-name="Groupe 10"
         id="Groupe_10">
        <line
           fill="#fff"
           transform="translate(0.604 0.373)"
           y2="5.747"
           x1="3.548"
           data-name="Ligne 7"
           id="Ligne_7" />
        <rect
           fill="#fff"
           transform="matrix(0.525, -0.851, 0.851, 0.525, 0, 5.747)"
           height="1.419"
           width="6.754"
           data-name="Rectangle 9"
           id="Rectangle_9" />
      </g>
    </g>
    <g
       transform="translate(10.089 2.111)"
       data-name="Groupe 13"
       id="Groupe_13">
      <g
         transform="translate(0 0)"
         data-name="Groupe 12"
         id="Groupe_12">
        <line
           fill="#fff"
           transform="translate(0.69 0.163)"
           y2="6.572"
           x2="1.555"
           data-name="Ligne 8"
           id="Ligne_8" />
        <rect
           fill="#fff"
           transform="translate(0 0.327) rotate(-13.309)"
           height="6.754"
           width="1.419"
           data-name="Rectangle 10"
           id="Rectangle_10" />
      </g>
    </g>
  </g>
  <g
     style="font-weight:800;font-size:33px;font-family:RoundedMplus1c-ExtraBold, 'Rounded Mplus 1c';fill:#ffffff"
     id="lumapple"
     transform="translate(57.79 35)"
     aria-label="lumapple">
    <path
       id="path108"
       d="M 4.884,0 Q 4.125,0 3.564,-0.561 3.003,-1.122 3.003,-1.881 v -20.988 q 0,-0.759 0.561,-1.32 0.561,-0.561 1.32,-0.561 h 1.848 q 0.759,0 1.32,0.561 0.561,0.561 0.561,1.32 v 20.988 q 0,0.759 -0.561,1.32 Q 7.491,0 6.732,0 Z" />
    <path
       id="path110"
       d="m 19.125562,0.33 q -2.904,0 -4.223999,-1.617 -1.287,-1.617 -1.287,-5.544 v -8.448 q 0,-0.759 0.561,-1.32 0.561,-0.561 1.32,-0.561 h 1.451999 q 0.759,0 1.32,0.561 0.561,0.561 0.561,1.32 v 8.085 q 0,1.914 0.495001,2.64 0.527999,0.693 1.782,0.693 1.154999,0 2.111999,-0.924 0.957,-0.957 0.957,-2.046 v -8.448 q 0,-0.759 0.561,-1.32 0.561,-0.561 1.32,-0.561 h 1.584 q 0.759,0 1.32,0.561 0.561,0.561 0.561,1.32 v 13.398 q 0,0.759 -0.561,1.32 -0.561,0.561 -1.32,0.561 h -1.352999 q -0.792001,0 -1.353001,-0.528 -0.527999,-0.561 -0.561,-1.353 v -0.264 q 0,-0.033 -0.033,-0.033 l -0.066,0.066 q -2.145,2.442 -5.148,2.442 z" />
    <path
       id="path112"
       d="m 35.769937,0 q -0.759,0 -1.32,-0.561 -0.561,-0.561 -0.561,-1.32 v -13.398 q 0,-0.759 0.561,-1.32 0.561,-0.561 1.32,-0.561 h 1.221 q 0.792001,0 1.320001,0.561 0.561,0.528 0.627,1.32 l 0.033,0.297 q 0,0.033 0.033,0.033 0.066,0 0.066,-0.033 1.946999,-2.508 4.454999,-2.508 1.518,0 2.409,0.561 0.891001,0.528 1.65,1.914 0,0.066 0.066,0.066 l 0.066,-0.066 q 2.277,-2.475 4.752001,-2.475 2.804999,0 4.059,1.518 1.253999,1.485 1.253999,5.082 v 9.009 q 0,0.759 -0.561,1.32 -0.561,0.561 -1.32,0.561 h -1.451999 q -0.759,0 -1.32,-0.561 -0.561,-0.561 -0.561,-1.32 v -8.679 q 0,-1.782 -0.396001,-2.343 -0.396,-0.594 -1.484999,-0.594 -0.759001,0 -1.485,0.627 -0.693001,0.627 -0.693001,1.221 v 9.768 q 0,0.759 -0.560999,1.32 Q 47.385937,0 46.626937,0 h -1.452 q -0.759,0 -1.32,-0.561 -0.561,-0.561 -0.561,-1.32 v -8.679 q 0,-1.782 -0.396,-2.343 -0.363,-0.594 -1.452,-0.594 -0.759,0 -1.485,0.627 -0.726,0.627 -0.726,1.221 v 9.768 q 0,0.759 -0.561,1.32 -0.561,0.561 -1.32,0.561 z" />
    <path
       id="path114"
       d="m 70.0755,-7.854 q -4.026,0 -4.026,2.475 0,0.891 0.528,1.419 0.528,0.495 1.419,0.495 1.584,0 2.574,-0.99 0.99,-1.023 0.99,-2.706 v -0.396 q 0,-0.297 -0.297,-0.297 z m -3.696,8.184 q -2.277,0 -3.762,-1.452 -1.452,-1.485 -1.452,-3.828 0,-6.006 8.91,-6.006 h 1.188 q 0.297,0 0.297,-0.264 v -0.165 q 0,-1.254 -0.66,-1.815 -0.627,-0.561 -2.145,-0.561 -2.013,0 -4.818,0.627 -0.693,0.132 -1.254,-0.297 -0.528,-0.429 -0.528,-1.122 v -0.066 q 0,-0.825 0.495,-1.485 0.528,-0.693 1.32,-0.825 2.904,-0.561 5.016,-0.561 4.323,0 6.105,1.551 1.815,1.551 1.815,5.148 v 8.91 q 0,0.759 -0.561,1.32 Q 75.7845,0 75.0255,0 h -1.221 q -0.792,0 -1.353,-0.528 -0.561,-0.561 -0.594,-1.353 v -0.363 q 0,-0.033 -0.033,-0.033 -0.066,0 -0.066,0.033 -2.079,2.574 -5.379,2.574 z" />
    <path
       id="path116"
       d="m 86.282625,-10.626 v 4.092 q 0,1.089 0.99,2.013 1.023,0.891 2.31,0.891 1.518,0 2.409,-1.221 0.891,-1.254 0.891,-3.729 0,-4.95 -3.3,-4.95 -1.287,0 -2.31,0.924 -0.99,0.891 -0.99,1.98 z m -3.333,17.886 q -0.759,0 -1.32,-0.561 -0.561,-0.561 -0.561,-1.32 v -20.658 q 0,-0.759 0.561,-1.32 0.561,-0.561 1.32,-0.561 h 1.32 q 0.792,0 1.353,0.561 0.561,0.528 0.594,1.32 v 0.264 q 0,0.033 0.033,0.033 l 0.066,-0.066 q 2.112,-2.442 5.082,-2.442 3.069,0 4.884,2.31 1.848,2.31 1.848,6.6 0,4.158 -1.914,6.534 -1.881,2.376 -4.818,2.376 -2.739,0 -4.884,-2.013 -0.033,-0.033 -0.066,-0.033 -0.033,0 -0.033,0.033 v 7.062 q 0,0.759 -0.561,1.32 -0.561,0.561 -1.32,0.561 z" />
    <path
       id="path118"
       d="m 106.71427,-10.626 v 4.092 q 0,1.089 0.99,2.013 1.023,0.891 2.31,0.891 1.518,0 2.409,-1.221 0.891,-1.254 0.891,-3.729 0,-4.95 -3.3,-4.95 -1.287,0 -2.31,0.924 -0.99,0.891 -0.99,1.98 z m -3.333,17.886 q -0.759,0 -1.32,-0.561 -0.561,-0.561 -0.561,-1.32 v -20.658 q 0,-0.759 0.561,-1.32 0.561,-0.561 1.32,-0.561 h 1.32 q 0.792,0 1.353,0.561 0.561,0.528 0.594,1.32 v 0.264 q 0,0.033 0.033,0.033 l 0.066,-0.066 q 2.112,-2.442 5.082,-2.442 3.069,0 4.884,2.31 1.848,2.31 1.848,6.6 0,4.158 -1.914,6.534 -1.881,2.376 -4.818,2.376 -2.739,0 -4.884,-2.013 -0.033,-0.033 -0.066,-0.033 -0.033,0 -0.033,0.033 v 7.062 q 0,0.759 -0.561,1.32 -0.561,0.561 -1.32,0.561 z" />
    <path
       id="path120"
       d="m 124.63791,0 q -0.759,0 -1.32,-0.561 -0.561,-0.561 -0.561,-1.32 v -20.988 q 0,-0.759 0.561,-1.32 0.561,-0.561 1.32,-0.561 h 1.848 q 0.759,0 1.32,0.561 0.561,0.561 0.561,1.32 v 20.988 q 0,0.759 -0.561,1.32 -0.561,0.561 -1.32,0.561 z" />
    <path
       id="path122"
       d="m 140.89247,-13.893 q -1.485,0 -2.244,0.792 -0.759,0.759 -0.957,2.64 0,0.264 0.231,0.264 h 5.577 q 0.297,0 0.297,-0.297 -0.132,-3.399 -2.904,-3.399 z m 0.825,14.223 q -4.488,0 -6.93,-2.277 -2.409,-2.277 -2.409,-6.633 0,-4.323 2.145,-6.6 2.178,-2.31 6.27,-2.31 7.854,0 7.986,8.58 0,0.792 -0.627,1.353 -0.594,0.528 -1.386,0.528 h -8.811 q -0.33,0 -0.264,0.297 0.264,1.815 1.386,2.607 1.155,0.759 3.432,0.759 1.485,0 3.201,-0.429 0.693,-0.165 1.221,0.264 0.561,0.429 0.561,1.122 v 0.066 q 0,0.825 -0.528,1.518 -0.495,0.66 -1.287,0.792 -1.914,0.363 -3.96,0.363 z" />
  </g>
</svg>
